<svg id="Capa_1" data-name="Capa 1" xmlns="http://www.w3.org/2000/svg" viewBox="0 0 39.47 9.13"><title>momaatype</title><polygon points="0 8.91 1.38 8.91 2.51 4.25 4.24 8.91 4.76 8.91 6.6 4.25 7.59 8.91 8.97 8.91 7.27 0.16 6.42 0.16 4.48 6.12 2.68 0.16 1.66 0.16 0 8.91"/><polygon points="16.13 8.91 17.51 8.91 18.64 4.25 20.37 8.91 20.9 8.91 22.73 4.25 23.72 8.91 25.1 8.91 23.4 0.16 22.56 0.16 20.61 6.12 18.81 0.16 17.79 0.16 16.13 8.91"/><path d="M16,7.18a3.28,3.28,0,0,0-3.14,3.4A3.28,3.28,0,0,0,16,14a3.28,3.28,0,0,0,3.14-3.4A3.28,3.28,0,0,0,16,7.18Zm0,5.67c-.86,0-1.55-1-1.55-2.26S15.1,8.34,16,8.34s1.55,1,1.55,2.26S16.81,12.86,16,12.86Z" transform="translate(-3.39 -4.85)"/><path d="M34.27,12.28c0-.66.38-3.33-.27-4.19s-2-1.53-4.27-.51L30,8.73a2.18,2.18,0,0,1,1.66-.28,1.16,1.16,0,0,1,1.18,1.12s-2.46-.25-3.28.82-.61,2.6.08,3a3.44,3.44,0,0,0,2.94,0c.64-.44.39-.33.39-.33a.89.89,0,0,0,.89.64c.72,0,.9-.27.9-.27A2,2,0,0,1,34.27,12.28Zm-1.4-.33c-.16.57-1.08.93-1.87.78s-.7-1.45-.11-1.87a3.45,3.45,0,0,1,2-.17A2.48,2.48,0,0,1,32.87,11.94Z" transform="translate(-3.39 -4.85)"/><path d="M39.35,4.85h-.73l-3.39,8.91h1.69l.66-2h3l.66,2h1.62Zm-1.41,6L39,7.52l1.12,3.31Z" transform="translate(-3.39 -4.85)"/></svg>